<svg width="22" height="22" viewBox="0 0 22 22" fill="none" xmlns="http://www.w3.org/2000/svg">
<path d="M11.0312 11.6243C10.9982 11.5414 10.9902 11.4506 11.0082 11.3632C11.0262 11.2758 11.0694 11.1956 11.1325 11.1325C11.1956 11.0694 11.2758 11.0262 11.3632 11.0082C11.4506 10.9902 11.5414 10.9982 11.6243 11.0312L19.8743 14.2396C19.9628 14.2741 20.0383 14.3353 20.0905 14.4146C20.1426 14.494 20.1689 14.5876 20.1656 14.6825C20.1622 14.7774 20.1295 14.8689 20.0719 14.9444C20.0143 15.0199 19.9347 15.0757 19.8441 15.104L16.6871 16.083C16.5446 16.127 16.4151 16.2051 16.3096 16.3106C16.2042 16.416 16.1261 16.5455 16.0821 16.688L15.104 19.8441C15.0757 19.9347 15.0199 20.0143 14.9444 20.0719C14.8689 20.1295 14.7774 20.1622 14.6825 20.1656C14.5876 20.1689 14.494 20.1426 14.4146 20.0905C14.3353 20.0383 14.2741 19.9628 14.2396 19.8743L11.0312 11.6243Z" stroke="#C9CCD1" stroke-width="1.83333" stroke-linecap="round" stroke-linejoin="round"/>
<path d="M4.58337 15.5833C4.58337 12.6659 5.7423 9.86798 7.8052 7.80508C9.8681 5.74218 12.666 4.58325 15.5834 4.58325" stroke="#C9CCD1" stroke-width="1.83333" stroke-linecap="round" stroke-linejoin="round"/>
<path d="M17.4167 6.41667C18.4292 6.41667 19.25 5.59586 19.25 4.58333C19.25 3.57081 18.4292 2.75 17.4167 2.75C16.4042 2.75 15.5834 3.57081 15.5834 4.58333C15.5834 5.59586 16.4042 6.41667 17.4167 6.41667Z" stroke="#C9CCD1" stroke-width="1.83333" stroke-linecap="round" stroke-linejoin="round"/>
<path d="M4.58333 19.2499C5.59586 19.2499 6.41667 18.4291 6.41667 17.4166C6.41667 16.4041 5.59586 15.5833 4.58333 15.5833C3.57081 15.5833 2.75 16.4041 2.75 17.4166C2.75 18.4291 3.57081 19.2499 4.58333 19.2499Z" stroke="#C9CCD1" stroke-width="1.83333" stroke-linecap="round" stroke-linejoin="round"/>
</svg>
