<svg width="22" height="22" viewBox="0 0 22 22" fill="none" xmlns="http://www.w3.org/2000/svg">
<path d="M17.4167 12.8333C18.7825 11.495 20.1667 9.89083 20.1667 7.79167C20.1667 6.45453 19.6355 5.17217 18.69 4.22667C17.7445 3.28117 16.4622 2.75 15.125 2.75C13.5117 2.75 12.375 3.20833 11 4.58333C9.62504 3.20833 8.48837 2.75 6.87504 2.75C5.53791 2.75 4.25554 3.28117 3.31004 4.22667C2.36455 5.17217 1.83337 6.45453 1.83337 7.79167C1.83337 9.9 3.20837 11.5042 4.58337 12.8333L11 19.25L17.4167 12.8333Z" stroke="#C9CCD1" stroke-width="1.83333" stroke-linecap="round" stroke-linejoin="round"/>
<path d="M2.9516 11.0001H8.70827L9.1666 10.0834L10.9999 14.2084L12.8333 7.79175L14.2083 11.0001H19.0391" stroke="#C9CCD1" stroke-width="1.83333" stroke-linecap="round" stroke-linejoin="round"/>
</svg>
